<svg fill="#000000" xmlns="http://www.w3.org/2000/svg"  viewBox="0 0 100 100" width="100px" height="100px"><path d="M 39.0625 2.9941406 C 38.934025 2.9926781 38.799791 3.0054455 38.658203 3.0351562 C 38.020571 3.1694932 37.680197 3.5803727 37.402344 3.9921875 C 37.124491 4.4040023 36.907119 4.8882285 36.714844 5.4433594 C 36.330294 6.553621 36.062836 7.9495465 35.984375 9.4335938 C 35.837114 12.218957 36.368518 15.386675 38.576172 17.144531 L 38.742188 17.988281 C 35.017029 19.418714 32.483203 22.177189 30.712891 25.513672 C 30.299808 26.292202 29.925592 27.103957 29.574219 27.933594 L 20.605469 26.011719 A 0.50005 0.50005 0 0 0 20.505859 25.998047 A 0.50005 0.50005 0 0 0 20.394531 26.988281 L 29.191406 28.873047 C 28.885692 29.649456 28.596497 30.436745 28.324219 31.238281 L 18.511719 31 A 0.50005 0.50005 0 0 0 18.462891 31 A 0.50016114 0.50016114 0 0 0 18.488281 32 L 28.005859 32.230469 C 27.734065 33.067829 27.466589 33.906683 27.210938 34.751953 L 18.429688 36.005859 A 0.50005 0.50005 0 1 0 18.570312 36.994141 L 26.892578 35.804688 C 26.748424 36.285551 26.603488 36.768056 26.458984 37.246094 C 22.474479 41.373831 17 50.89861 17 67.681641 C 17 70.041948 17.833598 71.692694 19.046875 72.646484 C 20.06315 73.445406 21.217413 73.720155 22.271484 73.876953 C 25.579516 85.227144 32.376953 90.783203 32.376953 90.783203 A 1.0001 1.0001 0 0 0 33 91 L 50 91 L 67 91 A 1.0001 1.0001 0 0 0 67.623047 90.783203 C 67.623047 90.783203 74.420484 85.227144 77.728516 73.876953 C 78.782587 73.720155 79.93685 73.445406 80.953125 72.646484 C 82.166402 71.692694 83 70.041948 83 67.681641 C 83 50.89861 77.525521 41.373831 73.541016 37.246094 C 73.396512 36.768056 73.251576 36.285551 73.107422 35.804688 L 81.429688 36.994141 A 0.50005 0.50005 0 1 0 81.570312 36.005859 L 72.789062 34.751953 C 72.533411 33.906683 72.265935 33.067829 71.994141 32.230469 L 81.511719 32 A 0.50013734 0.50013734 0 0 0 81.488281 31 L 71.675781 31.238281 C 71.403503 30.436745 71.114308 29.649456 70.808594 28.873047 L 79.605469 26.988281 A 0.50005 0.50005 0 0 0 79.529297 25.998047 A 0.50005 0.50005 0 0 0 79.394531 26.011719 L 70.425781 27.933594 C 70.074408 27.103957 69.700192 26.292202 69.287109 25.513672 C 67.516797 22.177189 64.982971 19.418714 61.257812 17.988281 L 61.423828 17.144531 C 63.631516 15.386625 64.162886 12.219069 64.015625 9.4335938 C 63.937164 7.9494873 63.669715 6.5535961 63.285156 5.4433594 C 63.092877 4.888241 62.875556 4.4039784 62.597656 3.9921875 C 62.319757 3.5803966 61.979675 3.1691706 61.341797 3.0351562 C 60.775361 2.9159598 60.326269 3.0764072 59.896484 3.2792969 C 59.4667 3.4821865 59.045968 3.768807 58.613281 4.1269531 C 57.747909 4.8432453 56.847004 5.8500696 56.0625 7.0585938 C 54.56861 9.3599223 53.525958 12.459915 54.445312 15.503906 L 54.179688 16.195312 C 52.661901 16.058241 51.189984 16 50 16 C 48.810016 16 47.338099 16.05824 45.820312 16.195312 L 45.554688 15.503906 C 46.474035 12.459948 45.43139 9.359795 43.9375 7.0585938 C 43.152996 5.8501364 42.25205 4.8432638 41.386719 4.1269531 C 40.954053 3.7687978 40.533221 3.4822402 40.103516 3.2792969 C 39.781236 3.1270894 39.447925 2.9985281 39.0625 2.9941406 z M 39.119141 5.0449219 C 39.159711 5.0562035 39.186288 5.0587242 39.248047 5.0878906 C 39.46308 5.1894473 39.773416 5.388249 40.111328 5.6679688 C 40.787153 6.2274081 41.582645 7.1034418 42.259766 8.1464844 C 43.614007 10.23257 44.462198 12.912302 43.587891 15.267578 A 1.0001 1.0001 0 0 0 43.591797 15.974609 L 44.210938 17.583984 A 1.0001 1.0001 0 0 0 45.267578 18.216797 C 46.986483 18.003853 48.585412 18 50 18 C 51.414588 18 53.013523 18.0039 54.732422 18.216797 A 1.0001 1.0001 0 0 0 55.789062 17.583984 L 56.408203 15.974609 A 1.0001 1.0001 0 0 0 56.412109 15.267578 C 55.537809 12.912321 56.385989 10.232686 57.740234 8.1464844 C 58.417355 7.1033835 59.212888 6.2273328 59.888672 5.6679688 C 60.226564 5.3882867 60.535047 5.1893643 60.75 5.0878906 C 60.812578 5.0583492 60.839836 5.056166 60.880859 5.0449219 C 60.90315 5.0682393 60.910197 5.0679873 60.939453 5.1113281 C 61.071022 5.3062872 61.243514 5.6560246 61.396484 6.0976562 C 61.702425 6.9809196 61.948539 8.2331689 62.017578 9.5390625 C 62.155656 12.15085 61.521632 14.841594 59.957031 15.839844 A 1.0001 1.0001 0 0 0 59.513672 16.488281 L 59.140625 18.380859 A 1.0001 1.0001 0 0 0 59.828125 19.529297 C 63.476635 20.652841 65.76186 23.134832 67.521484 26.451172 C 67.844531 27.060013 68.141191 27.703328 68.427734 28.361328 L 65.394531 29.011719 A 0.50005 0.50005 0 1 0 65.605469 29.988281 L 68.824219 29.298828 C 69.084082 29.94531 69.330436 30.611317 69.568359 31.289062 L 66.929688 31.353516 A 0.50013734 0.50013734 0 0 0 66.953125 32.353516 L 69.90625 32.28125 C 70.142519 32.989748 70.372779 33.710063 70.597656 34.4375 L 67.570312 34.005859 A 0.50005 0.50005 0 0 0 67.470703 34 A 0.50005 0.50005 0 0 0 67.429688 34.994141 L 70.923828 35.494141 C 71.175009 36.32266 71.425135 37.154652 71.677734 37.988281 A 1.0001 1.0001 0 0 0 71.925781 38.402344 C 75.458271 41.953628 81 51.078533 81 67.681641 C 81 69.611334 80.448223 70.500759 79.71875 71.074219 C 78.989277 71.647678 77.934623 71.894128 76.892578 72.005859 A 1.0001 1.0001 0 0 0 76.035156 72.736328 C 73.130489 83.385544 67.267042 88.457263 66.613281 89 L 50 89 L 33.386719 89 C 32.732958 88.457263 26.869511 83.385544 23.964844 72.736328 A 1.0001 1.0001 0 0 0 23.107422 72.005859 C 22.065377 71.894128 21.010723 71.647678 20.28125 71.074219 C 19.551777 70.500759 19 69.611334 19 67.681641 C 19 51.078533 24.5417 41.953628 28.074219 38.402344 A 1.0001 1.0001 0 0 0 28.322266 37.988281 C 28.574865 37.154652 28.824991 36.32266 29.076172 35.494141 L 32.570312 34.994141 A 0.50005 0.50005 0 0 0 32.513672 33.998047 A 0.50005 0.50005 0 0 0 32.429688 34.005859 L 29.402344 34.4375 C 29.627221 33.710063 29.857481 32.989748 30.09375 32.28125 L 33.046875 32.353516 A 0.50013734 0.50013734 0 0 0 33.070312 31.353516 L 30.431641 31.289062 C 30.669564 30.611317 30.915918 29.94531 31.175781 29.298828 L 34.394531 29.988281 A 0.50005 0.50005 0 1 0 34.605469 29.011719 L 31.572266 28.361328 C 31.858809 27.703328 32.155469 27.060013 32.478516 26.451172 C 34.23814 23.134832 36.523365 20.652841 40.171875 19.529297 A 1.0001 1.0001 0 0 0 40.859375 18.380859 L 40.486328 16.488281 A 1.0001 1.0001 0 0 0 40.042969 15.839844 C 38.478321 14.841564 37.844344 12.150718 37.982422 9.5390625 C 38.051462 8.2332346 38.297565 6.9809884 38.603516 6.0976562 C 38.756491 5.6559903 38.928931 5.3064001 39.060547 5.1113281 C 39.089594 5.0682766 39.096959 5.0682089 39.119141 5.0449219 z M 40 22 C 38.708334 22 37.676923 22.502378 37.001953 23.261719 C 36.326984 24.02106 36 25.013889 36 26 C 36 26.986111 36.326984 27.97894 37.001953 28.738281 C 37.676923 29.497622 38.708334 30 40 30 C 41.291666 30 42.323077 29.497622 42.998047 28.738281 C 43.673016 27.97894 44 26.986111 44 26 C 44 25.013889 43.673016 24.02106 42.998047 23.261719 C 42.323077 22.502378 41.291666 22 40 22 z M 60 22 C 58.708334 22 57.676923 22.502378 57.001953 23.261719 C 56.326984 24.02106 56 25.013889 56 26 C 56 26.986111 56.326984 27.97894 57.001953 28.738281 C 57.676923 29.497622 58.708334 30 60 30 C 61.291666 30 62.323077 29.497622 62.998047 28.738281 C 63.673016 27.97894 64 26.986111 64 26 C 64 25.013889 63.673016 24.02106 62.998047 23.261719 C 62.323077 22.502378 61.291666 22 60 22 z M 40 23 C 41.041666 23 41.760256 23.372622 42.251953 23.925781 C 42.74365 24.47894 43 25.236111 43 26 C 43 26.763889 42.74365 27.52106 42.251953 28.074219 C 41.760256 28.627378 41.041666 29 40 29 C 38.958334 29 38.239744 28.627378 37.748047 28.074219 C 37.25635 27.52106 37 26.763889 37 26 C 37 25.236111 37.25635 24.47894 37.748047 23.925781 C 38.239744 23.372622 38.958334 23 40 23 z M 60 23 C 61.041666 23 61.760256 23.372622 62.251953 23.925781 C 62.74365 24.47894 63 25.236111 63 26 C 63 26.763889 62.74365 27.52106 62.251953 28.074219 C 61.760256 28.627378 61.041666 29 60 29 C 58.958334 29 58.239744 28.627378 57.748047 28.074219 C 57.25635 27.52106 57 26.763889 57 26 C 57 25.236111 57.25635 24.47894 57.748047 23.925781 C 58.239744 23.372622 58.958334 23 60 23 z M 40 24.5 A 1.5 1.5 0 0 0 40 27.5 A 1.5 1.5 0 0 0 40 24.5 z M 60 24.5 A 1.5 1.5 0 0 0 60 27.5 A 1.5 1.5 0 0 0 60 24.5 z M 50 26 C 48.343 26 47 26.517297 47 27.154297 C 47 27.791297 48.343 29 50 29 C 51.657 29 53 27.791297 53 27.154297 C 53 26.517297 51.657 26 50 26 z M 50 36 C 42.137989 36 35.863512 38.654359 31.576172 43.123047 C 27.288832 47.591735 25 53.851989 25 61 C 25 75.342627 36.187745 87 50 87 C 63.812255 87 75 75.342627 75 61 C 75 53.851989 72.711168 47.591735 68.423828 43.123047 C 64.136488 38.654359 57.862011 36 50 36 z M 50 37 C 57.637989 37 63.613512 39.553891 67.701172 43.814453 C 71.788832 48.075015 74 54.065011 74 61 C 74 74.823373 63.249745 86 50 86 C 36.750255 86 26 74.823373 26 61 C 26 54.065011 28.211168 48.075015 32.298828 43.814453 C 36.386488 39.553891 42.362011 37 50 37 z M 50 41.117188 C 47.921 41.117188 46.234375 43.663766 46.234375 44.634766 C 46.234375 45.605766 47.921 43.404297 50 43.404297 C 52.079 43.404297 53.765625 45.605766 53.765625 44.634766 C 53.765625 43.663766 52.079 41.117188 50 41.117188 z M 39.519531 43.052734 C 39.283004 43.046641 39.038734 43.073422 38.787109 43.138672 C 36.774109 43.660672 35.096422 46.693219 35.357422 47.699219 C 35.618422 48.705219 36.840516 46.170437 38.853516 45.648438 C 40.866516 45.126438 42.907484 46.605609 42.646484 45.599609 C 42.418109 44.719359 41.175223 43.095391 39.519531 43.052734 z M 60.480469 43.052734 C 58.824777 43.095391 57.581891 44.719359 57.353516 45.599609 C 57.092516 46.605609 59.133484 45.126438 61.146484 45.648438 C 63.159484 46.170437 64.381578 48.705219 64.642578 47.699219 C 64.903578 46.693219 63.225891 43.660672 61.212891 43.138672 C 60.961266 43.073422 60.716996 43.046641 60.480469 43.052734 z M 44.794922 49.019531 C 42.746922 49.167531 41.268891 51.794953 41.337891 52.751953 C 41.406891 53.707953 42.909031 51.419484 44.957031 51.271484 C 47.004031 51.123484 48.820953 53.171844 48.751953 52.214844 C 48.682953 51.257844 46.841922 48.870531 44.794922 49.019531 z M 55.205078 49.019531 C 53.158078 48.870531 51.317047 51.257844 51.248047 52.214844 C 51.179047 53.171844 52.995969 51.123484 55.042969 51.271484 C 57.090969 51.419484 58.593109 53.707953 58.662109 52.751953 C 58.731109 51.794953 57.253078 49.167531 55.205078 49.019531 z M 34.947266 51.183594 C 34.696094 51.189521 34.445344 51.229125 34.199219 51.3125 C 32.230219 51.9795 30.989781 54.880781 31.300781 55.800781 C 31.611781 56.720781 32.630609 54.19825 34.599609 53.53125 C 36.568609 52.86425 39.062953 54.537188 38.751953 53.617188 C 38.479828 52.812188 36.705469 51.1421 34.947266 51.183594 z M 65.052734 51.183594 C 63.294531 51.1421 61.520172 52.812188 61.248047 53.617188 C 60.937047 54.537188 63.431391 52.86425 65.400391 53.53125 C 67.369391 54.19825 68.388219 56.720781 68.699219 55.800781 C 69.010219 54.880781 67.769781 51.9795 65.800781 51.3125 C 65.554656 51.229125 65.303906 51.189521 65.052734 51.183594 z"/></svg>